<?xml version="1.0" encoding="iso-8859-1"?>
<!-- Generator: Adobe Illustrator 16.2.0, SVG Export Plug-In . SVG Version: 6.00 Build 0)  -->
<!DOCTYPE svg PUBLIC "-//W3C//DTD SVG 1.1//EN" "http://www.w3.org/Graphics/SVG/1.1/DTD/svg11.dtd">
<svg version="1.1" id="Capa_1" xmlns="http://www.w3.org/2000/svg" xmlns:xlink="http://www.w3.org/1999/xlink" x="0px" y="0px"
	 width="200px" height="200px" viewBox="0 0 200 200" style="enable-background:new 0 0 200 200;" xml:space="preserve">
<g>
	<g>
		<path style="fill:#FFFFFF;stroke:#FFFFFF;stroke-width:1.4;stroke-miterlimit:10;" d="M85.635,77.826
			c-7.007,0-12.292,9.533-12.292,22.174c0,12.641,5.284,22.174,12.292,22.174c7.008,0,12.293-9.533,12.293-22.174
			C97.928,87.358,92.643,77.826,85.635,77.826z M85.635,116.314c-2.622,0-6.432-6.355-6.432-16.315
			c0-9.959,3.81-16.314,6.432-16.314c2.623,0,6.433,6.355,6.433,16.314C92.068,109.959,88.258,116.314,85.635,116.314z"/>
	</g>
</g>
<g>
	<g>
		<path style="fill:#FFFFFF;stroke:#FFFFFF;stroke-width:1.4;stroke-miterlimit:10;" d="M197.07,68.594h-12.664
			c-6.352-13.452-16.852-24.905-29.74-32.393c-1.4-0.813-3.193-0.337-4.006,1.062c-0.813,1.399-0.338,3.192,1.063,4.005
			c12.379,7.191,22.365,18.355,28.117,31.436c0.469,1.063,1.521,1.75,2.682,1.75h11.617v8.443h-22.518
			c-7.374-23.313-29.219-39.529-53.998-39.529c-25.161,0-46.491,16.401-53.88,39.16c-13.551,7.677-13.549,27.267,0,34.945
			c2.654,8.178,7.21,15.746,13.228,21.95c1.126,1.161,2.981,1.19,4.143,0.063c1.162-1.127,1.189-2.981,0.063-4.143
			c-5.656-5.832-9.871-13.005-12.191-20.742c-0.235-0.783-0.789-1.435-1.525-1.793c-4.948-2.404-8.021-7.313-8.021-12.81
			s3.073-10.404,8.021-12.81c0.737-0.358,1.291-1.008,1.525-1.793c6.385-21.296,26.385-36.169,48.638-36.169
			c17.694,0,33.772,9.231,42.908,23.628l-3.753,6.362h-4.049c-1.619,0-2.93,1.312-2.93,2.93s1.311,2.93,2.93,2.93h5.722
			c1.036,0,1.995-0.548,2.522-1.441l2.818-4.778c1.133,2.471,2.077,5.056,2.811,7.74c0.349,1.274,1.506,2.158,2.826,2.158h24.709
			v8.274h-32.32l-12.567-4.489l-3.546-15.658c-0.213-0.94-0.874-1.715-1.77-2.073l-5.852-2.34c-1.502-0.601-3.207,0.129-3.809,1.632
			c-0.603,1.503,0.129,3.208,1.631,3.809l4.423,1.769l3.034,13.4l-9.271,4.213c-1.474,0.669-2.124,2.406-1.455,3.88
			c0.67,1.474,2.406,2.123,3.881,1.454l10.362-4.71l5.479,1.957l-5.379,9.597l-7.684,1.67c-1.58,0.344-2.584,1.903-2.24,3.485
			c0.299,1.371,1.512,2.308,2.86,2.308c0.206,0,0.415-0.021,0.625-0.066l8.972-1.951c0.82-0.178,1.523-0.699,1.934-1.43
			l6.509-11.613l2.369,0.846c0.315,0.113,0.647,0.172,0.983,0.172h32.828v8.353h-24.71c-1.321,0-2.479,0.885-2.825,2.157
			c-1.465,5.367-3.772,10.336-6.752,14.785l-13.757,2.209c-3.192-2.836-5.269-4.68-8.844-7.854c-1.21-1.075-3.062-0.965-4.136,0.245
			c-1.075,1.209-0.965,3.062,0.244,4.137l3.873,3.438l-6.146,4.566c-1.298,0.965-1.568,2.801-0.604,4.1
			c0.576,0.773,1.459,1.183,2.354,1.183c0.607,0,1.221-0.188,1.746-0.578l7.125-5.295c3.271,2.906,1.658,2.433,12.678,0.663
			c-9.369,9.813-22.544,15.771-36.764,15.771c-10.441,0-20.469-3.145-29-9.094c-1.328-0.926-3.154-0.6-4.08,0.729
			c-0.925,1.325-0.6,3.151,0.728,4.077c31.303,21.83,74.897,6.828,86.35-29.381h22.519v8.442H182.52
			c-1.162,0-2.215,0.687-2.682,1.75c-10.842,24.647-35.238,40.573-62.154,40.573c-37.423,0-67.87-30.445-67.87-67.87
			c0-47.698,48.24-80.691,92.721-63.177c1.505,0.592,3.205-0.147,3.8-1.652s-0.146-3.207-1.651-3.8
			c-8.597-3.385-17.681-5.101-26.996-5.101c-40.656,0-73.73,33.075-73.73,73.73c0,40.655,33.077,73.731,73.73,73.731
			c28.596,0,54.574-16.549,66.721-42.323h12.662c1.617,0,2.93-1.313,2.93-2.931c0-0.537,0-56.374,0-56.953
			C200,69.905,198.688,68.594,197.07,68.594z"/>
	</g>
</g>
<g>
	<g>
		<path style="fill:#FFFFFF;stroke:#FFFFFF;stroke-width:1.4;stroke-miterlimit:10;" d="M48.618,60.164
			c1.023-1.816,1.278-3.923,0.717-5.932c-1.872-6.697-10.927-7.754-14.319-1.731C28.2,64.602,24.038,78.268,22.907,92.193H7.806
			C3.502,92.193,0,95.695,0,100c0,4.305,3.502,7.807,7.806,7.807h15.101c1.13,13.924,5.292,27.592,12.108,39.691
			c1.381,2.451,3.989,3.977,6.806,3.977c1.334,0,2.658-0.349,3.827-1.006c3.75-2.113,5.083-6.883,2.97-10.633
			C34.745,115.209,34.723,84.832,48.618,60.164z M41.821,145.613c-0.704,0-1.355-0.379-1.7-0.991
			c-6.827-12.12-10.82-25.917-11.547-39.897c-0.082-1.558-1.367-2.777-2.926-2.777H7.806c-1.073,0-1.946-0.873-1.946-1.946
			c0-1.073,0.873-1.946,1.946-1.946h17.842c1.559,0,2.845-1.221,2.926-2.777c0.727-13.982,4.72-27.779,11.547-39.899
			c0.254-0.453,0.671-0.779,1.172-0.919c1.653-0.462,3.075,1.311,2.219,2.829c-14.88,26.419-14.896,58.979,0,85.423
			C44.243,144.008,43.297,145.613,41.821,145.613z"/>
	</g>
</g>
</svg>
