<?xml version="1.0" encoding="iso-8859-1"?>
<!-- Generator: Adobe Illustrator 16.2.0, SVG Export Plug-In . SVG Version: 6.00 Build 0)  -->
<!DOCTYPE svg PUBLIC "-//W3C//DTD SVG 1.1//EN" "http://www.w3.org/Graphics/SVG/1.1/DTD/svg11.dtd">
<svg version="1.1" id="Capa_1" xmlns="http://www.w3.org/2000/svg" xmlns:xlink="http://www.w3.org/1999/xlink" x="0px" y="0px"
	 width="200px" height="200px" viewBox="0 0 200 200" style="enable-background:new 0 0 200 200;" xml:space="preserve">
<g>
	<circle style="fill:#FFFFFF;" cx="100.001" cy="73.414" r="10.634"/>
	<path style="fill:#FFFFFF;" d="M176.67,91.5c8.635-7.708,13.327-13.904,13.561-14.217c1.72-2.292,1.72-5.443,0.002-7.737
		c-0.351-0.465-8.732-11.537-23.965-22.613C146.028,32.21,123.112,24.43,100,24.43c-23.112,0-46.028,7.78-66.27,22.501
		C18.5,58.009,10.117,69.081,9.768,69.546c-1.719,2.292-1.719,5.443,0,7.734c0.349,0.466,8.733,11.537,23.965,22.615
		c18.419,13.395,39.051,21.041,60.029,22.31c-0.128,1.445-0.206,2.904-0.206,4.38c0,27.011,21.973,48.983,48.984,48.983
		c27.01,0,48.982-21.973,48.982-48.982C191.522,112.838,185.822,100.403,176.67,91.5z M176.638,73.414
		c-2.345,2.591-5.904,6.247-10.566,10.228c-5.256-2.892-11.101-4.837-17.302-5.627c0.143-1.527,0.215-3.063,0.215-4.6
		c0-9.808-2.908-18.944-7.893-26.614c5.878,2.815,11.634,6.252,17.253,10.309C166.909,63.292,173.134,69.543,176.638,73.414z
		 M96.696,109.349C78.338,107.673,63.908,92.2,63.908,73.414c0-19.902,16.191-36.092,36.094-36.092
		c19.902,0,36.094,16.19,36.094,36.092c0,1.564-0.103,3.123-0.302,4.665C117.812,80.569,102.921,92.847,96.696,109.349z
		 M23.364,73.414c3.505-3.872,9.728-10.125,18.292-16.305c5.62-4.057,11.376-7.494,17.255-10.309
		c-4.985,7.669-7.894,16.805-7.894,26.614s2.909,18.943,7.894,26.614c-5.877-2.815-11.634-6.253-17.255-10.309
		C33.092,83.536,26.866,77.284,23.364,73.414z M142.538,162.679c-19.9,0-36.093-16.19-36.093-36.094
		c0-19.901,16.19-36.092,36.093-36.092c19.904,0,36.094,16.191,36.094,36.092C178.632,146.487,162.442,162.679,142.538,162.679z"/>
	<path style="fill:#FFFFFF;" d="M163.809,120.143L163.809,120.143l-14.824,0.005v-14.829c0-3.56-2.887-6.446-6.446-6.446
		c-3.559,0-6.444,2.886-6.444,6.446v14.831l-14.816,0.003c-3.561,0-6.444,2.888-6.443,6.446c0,3.56,2.886,6.444,6.444,6.444h0.002
		l14.815-0.004v14.816c0,3.56,2.885,6.444,6.444,6.444c3.559,0,6.446-2.885,6.446-6.444v-14.82l14.825-0.003
		c3.56,0,6.444-2.887,6.444-6.446C170.254,123.027,167.369,120.143,163.809,120.143z"/>
</g>
</svg>
