<?xml version="1.0" encoding="iso-8859-1"?>
<!-- Generator: Adobe Illustrator 16.2.0, SVG Export Plug-In . SVG Version: 6.00 Build 0)  -->
<!DOCTYPE svg PUBLIC "-//W3C//DTD SVG 1.1//EN" "http://www.w3.org/Graphics/SVG/1.1/DTD/svg11.dtd">
<svg version="1.1" id="Capa_1" xmlns="http://www.w3.org/2000/svg" xmlns:xlink="http://www.w3.org/1999/xlink" x="0px" y="0px"
	 width="200px" height="200px" viewBox="0 0 200 200" style="enable-background:new 0 0 200 200;" xml:space="preserve">
<g>
	<path style="fill:#FFFFFF;" d="M155.678,15.5H44.323c-3.105,0-5.624,2.518-5.624,5.624v157.753c0,3.104,2.517,5.623,5.624,5.623
		h111.355c3.105,0,5.624-2.517,5.624-5.623V21.124C161.301,18.018,158.782,15.5,155.678,15.5z M150.053,173.253H49.947V26.748
		h100.105V173.253L150.053,173.253z"/>
	<path style="fill:#FFFFFF;" d="M90.72,71.177c-3.105,0-5.625,2.518-5.625,5.624c0,3.105,2.518,5.625,5.625,5.625h18.56
		c3.105,0,5.623-2.518,5.623-5.625V39.683c0-3.105-2.518-5.625-5.623-5.625H90.72c-3.105,0-5.625,2.518-5.625,5.625
		c0,3.106,2.518,5.624,5.625,5.624h12.935v7.312H90.72c-3.105,0-5.625,2.518-5.625,5.624s2.518,5.624,5.625,5.624h12.935v7.311
		L90.72,71.177L90.72,71.177z"/>
	<path style="fill:#FFFFFF;" d="M69.771,124.924c2.796,0,5.062-2.268,5.062-5.063v-9.786h4.725v9.786
		c0,2.797,2.265,5.063,5.061,5.063c2.796,0,5.062-2.268,5.062-5.063v-9.786h4.724v9.786c0,2.797,2.266,5.063,5.062,5.063
		c2.794,0,5.061-2.268,5.061-5.063v-14.846c0-2.796-2.267-5.062-5.061-5.062H69.771c-2.795,0-5.062,2.266-5.062,5.062v14.846
		C64.709,122.656,66.976,124.924,69.771,124.924z"/>
	<path style="fill:#FFFFFF;" d="M123.221,128.071l11.507,0.002c2.484,0,4.499-2.016,4.499-4.501c0-2.483-2.015-4.499-4.499-4.499
		h-7.006v-2.508h7.006c2.484,0,4.499-2.014,4.499-4.499c0-2.484-2.015-4.499-4.499-4.499h-7.006v-2.509l7.006,0.002
		c2.484,0,4.499-2.016,4.499-4.5s-2.015-4.499-4.499-4.499h-11.507c-1.193,0-2.338,0.474-3.181,1.317
		c-0.844,0.844-1.317,1.988-1.317,3.182v23.012C118.722,126.057,120.737,128.071,123.221,128.071z"/>
	<path style="fill:#FFFFFF;" d="M108.145,144.175v7.006h-2.509l0.001-7.006c0-2.486-2.014-4.5-4.5-4.5
		c-2.484,0-4.498,2.014-4.498,4.5v7.006h-2.508v-7.006c0-2.486-2.014-4.5-4.5-4.5c-2.484,0-4.5,2.014-4.5,4.5v11.505
		c0,1.192,0.474,2.338,1.317,3.182c0.844,0.843,1.988,1.316,3.182,1.316h23.012c2.485,0,4.5-2.013,4.5-4.498v-11.507
		c0-2.483-2.015-4.498-4.5-4.498C110.158,139.675,108.145,141.689,108.145,144.175z"/>
</g>
</svg>
